<svg width="30" height="15" viewBox="0 0 30 15" fill="none" xmlns="http://www.w3.org/2000/svg">
<path d="M1 6.58398C0.447715 6.58398 0 7.0317 0 7.58398C0 8.13627 0.447715 8.58398 1 8.58398V6.58398ZM29.7071 8.29109C30.0976 7.90057 30.0976 7.2674 29.7071 6.87688L23.3431 0.512917C22.9526 0.122392 22.3195 0.122392 21.9289 0.512917C21.5384 0.903441 21.5384 1.53661 21.9289 1.92713L27.5858 7.58398L21.9289 13.2408C21.5384 13.6314 21.5384 14.2645 21.9289 14.6551C22.3195 15.0456 22.9526 15.0456 23.3431 14.6551L29.7071 8.29109ZM1 7.58398V8.58398H29V7.58398V6.58398H1V7.58398Z" fill="white"/>
</svg>
