<svg width="22" height="19" viewBox="0 0 22 19" fill="none" xmlns="http://www.w3.org/2000/svg">
<path d="M4.94246 0.545649C5.06363 0.527814 5.18972 0.5116 5.22083 0.508357C5.25194 0.505114 5.39277 0.501871 5.53195 0.50025C5.67114 0.498629 5.92986 0.505114 6.10507 0.513221C6.28028 0.522949 6.5128 0.544027 6.62087 0.561863C6.72894 0.581319 6.95 0.628339 7.11211 0.667253C7.27422 0.706166 7.50674 0.772642 7.62791 0.814798C7.74909 0.856954 7.95213 0.934781 8.07822 0.986665C8.2043 1.04017 8.36641 1.11313 8.43846 1.1488C8.51051 1.18447 8.65297 1.26068 8.75286 1.31743C8.85438 1.37418 9.03614 1.48443 9.15404 1.56063C9.27357 1.63846 9.45697 1.76331 9.56013 1.83951C9.66329 1.91572 9.81066 2.02921 9.88762 2.09245C9.96459 2.15406 10.1218 2.29026 10.238 2.39402C10.3543 2.49617 10.5737 2.70857 10.9995 3.14797L11.381 2.77343C11.5906 2.56751 11.8444 2.32755 11.9427 2.23999C12.0409 2.15244 12.1883 2.02921 12.2701 1.9676C12.352 1.90599 12.5207 1.78439 12.6468 1.69683C12.7728 1.60928 12.9415 1.4974 13.0234 1.44876C13.1053 1.40012 13.2739 1.30446 13.4 1.23798C13.5261 1.16988 13.7259 1.0726 13.8421 1.02234C13.9584 0.972072 14.1303 0.902353 14.222 0.868304C14.3153 0.832634 14.4742 0.780749 14.5741 0.749943C14.6756 0.719137 14.877 0.668874 15.0211 0.636446C15.1652 0.604019 15.3977 0.561863 15.5369 0.542406C15.7596 0.509978 15.8513 0.505114 16.2901 0.506736C16.6586 0.508357 16.8452 0.514843 17.0024 0.535921C17.1203 0.550513 17.3037 0.581319 17.4118 0.604019C17.5199 0.626718 17.6705 0.662388 17.7475 0.683466C17.8244 0.704544 17.9816 0.754807 18.0995 0.795342C18.2174 0.834255 18.4074 0.908839 18.5253 0.959101C18.6432 1.00936 18.8086 1.08719 18.8937 1.13259C18.9789 1.17799 19.1393 1.27041 19.2507 1.3385C19.362 1.4066 19.5307 1.5201 19.6273 1.58982C19.7239 1.65954 19.8729 1.7779 19.9581 1.85086C20.0432 1.92382 20.1791 2.04867 20.2594 2.12812C20.3412 2.20757 20.469 2.34214 20.5443 2.42645C20.6213 2.51076 20.749 2.66804 20.8292 2.77505C20.9111 2.88206 21.0339 3.06041 21.1043 3.17229C21.1731 3.28416 21.2861 3.48035 21.3548 3.61006C21.4236 3.73977 21.5268 3.9619 21.5841 4.10458C21.643 4.24727 21.7134 4.43697 21.7413 4.52614C21.7675 4.61532 21.8166 4.79367 21.8494 4.92338C21.8805 5.05309 21.9214 5.24604 21.9394 5.35305C21.9607 5.47141 21.9804 5.70165 21.9902 5.93675C22.0033 6.22049 22.0033 6.41505 21.9902 6.65826C21.9804 6.84148 21.9574 7.08144 21.9411 7.19332C21.923 7.30519 21.8903 7.4803 21.8674 7.58245C21.8461 7.6846 21.8084 7.83376 21.7855 7.91483C21.7642 7.9959 21.7167 8.14183 21.6807 8.23911C21.6447 8.33639 21.5808 8.50177 21.5366 8.60392C21.494 8.70607 21.3974 8.90712 21.3254 9.0498C21.2517 9.19248 21.1223 9.42272 21.0388 9.56054C20.9553 9.69835 20.8145 9.91724 20.7277 10.047C20.6409 10.1767 20.4837 10.3955 20.3822 10.5334C20.279 10.6712 20.1185 10.8803 20.0236 10.9955C19.9302 11.1106 19.7485 11.3262 19.6224 11.4738C19.4947 11.6213 19.3096 11.8289 19.2114 11.9359C19.1131 12.0429 18.8659 12.3007 18.6628 12.5115C18.4581 12.7206 18.1192 13.053 17.9096 13.2508C17.6984 13.447 17.4347 13.6918 17.3217 13.794C17.2088 13.8977 16.9582 14.1182 16.765 14.2869C16.5718 14.4539 16.2394 14.7344 16.0281 14.9095C15.8169 15.0846 15.4256 15.3991 15.1603 15.6099C14.895 15.8207 14.5086 16.119 14.3006 16.2747C14.0943 16.4303 13.8241 16.6298 13.7029 16.7189C13.5818 16.8065 13.2575 17.0367 12.9824 17.2297C12.7073 17.4226 12.3029 17.6999 12.0818 17.8474C11.8608 17.995 11.5955 18.1701 11.4923 18.2349C11.3892 18.3014 11.2353 18.389 11.1518 18.4327C11.0077 18.5073 10.9978 18.5089 10.9471 18.4895C10.9192 18.4765 10.8013 18.4117 10.6851 18.3436C10.5704 18.2738 10.369 18.1474 10.2348 18.0614C10.1021 17.9755 9.8385 17.7988 9.65019 17.6691C9.46188 17.541 9.14421 17.3205 8.94608 17.181C8.74794 17.04 8.42045 16.8033 8.2174 16.6557C8.01436 16.5082 7.68359 16.2601 7.48054 16.1077C7.27913 15.9536 6.96965 15.7137 6.7928 15.5759C6.61759 15.4364 6.29338 15.1738 6.07232 14.9922C5.85126 14.8106 5.50084 14.5139 5.29452 14.3355C5.0882 14.1555 4.81801 13.9188 4.69684 13.8086C4.57567 13.6983 4.29894 13.4421 4.08279 13.2395C3.86664 13.0352 3.54242 12.7174 3.36066 12.5325C3.18054 12.3461 2.91855 12.0704 2.77936 11.9196C2.64018 11.7672 2.44204 11.5451 2.33888 11.4251C2.23408 11.3051 2.07525 11.1154 1.98519 11.0036C1.89513 10.8917 1.7543 10.7133 1.67243 10.6063C1.5922 10.4993 1.44319 10.295 1.3433 10.1523C1.24341 10.0097 1.0813 9.76159 0.984693 9.60269C0.888082 9.44217 0.74071 9.17951 0.660474 9.01899C0.5786 8.85686 0.480352 8.64445 0.441053 8.54717C0.401754 8.44989 0.337892 8.27802 0.298593 8.16615C0.260931 8.05427 0.206894 7.87592 0.179057 7.76891C0.152858 7.6619 0.115196 7.49003 0.0955464 7.38788C0.0775342 7.28574 0.0513347 7.11063 0.0365975 6.99875C0.0234977 6.88688 0.00712301 6.63556 0.0022106 6.43937C-0.00270182 6.22697 0.000573071 5.98863 0.0120354 5.84757C0.0218602 5.71786 0.0415099 5.53626 0.0562471 5.44222C0.0693469 5.34818 0.0988215 5.18118 0.121746 5.06931C0.144671 4.95743 0.19052 4.76773 0.224907 4.64775C0.260931 4.52776 0.328067 4.32671 0.375554 4.20187C0.423041 4.07702 0.526201 3.84678 0.6048 3.69113C0.683399 3.53548 0.798022 3.32794 0.860246 3.22904C0.922469 3.13013 1.02727 2.97772 1.09113 2.88855C1.15663 2.79937 1.26143 2.6648 1.32529 2.58859C1.38915 2.51239 1.52015 2.36808 1.61512 2.26594C1.71173 2.16379 1.87057 2.00814 1.97045 1.91896C2.07034 1.82978 2.25046 1.68386 2.37163 1.59306C2.4928 1.50226 2.69258 1.36931 2.81375 1.29635C2.93492 1.22501 3.10194 1.13259 3.18218 1.09368C3.26242 1.05314 3.39996 0.989908 3.48511 0.954237C3.57026 0.918567 3.75038 0.85209 3.88629 0.80507C4.02057 0.759671 4.26455 0.689952 4.42666 0.651039C4.58877 0.610504 4.82129 0.563484 4.94246 0.545649Z" fill="white"/>
</svg>
