<svg width="16" height="19" viewBox="0 0 16 19" fill="none" xmlns="http://www.w3.org/2000/svg">
<path d="M7.9646 7.47178C6.69386 7.47178 5.66372 6.44467 5.66372 5.17767C5.66372 3.91066 6.69386 2.88355 7.9646 2.88355C9.23535 2.88355 10.2655 3.91066 10.2655 5.17767C10.2655 6.44467 9.23535 7.47178 7.9646 7.47178Z" fill="white"/>
<path d="M9.13274 2.03263C8.76888 1.89822 8.37535 1.82472 7.9646 1.82472C7.58033 1.82472 7.2112 1.8892 6.86726 2.00754L6.86726 1.82472C6.86726 1.20097 7.3744 0.695312 8 0.695312C8.6256 0.695312 9.13274 1.20097 9.13274 1.82472L9.13274 2.03263Z" fill="white"/>
<path d="M9.13274 7.15434C8.79032 7.35595 8.39106 7.47178 7.9646 7.47178C7.56724 7.47178 7.19342 7.37132 6.86726 7.19453L6.86726 3.1608C7.19342 2.98401 7.56724 2.88355 7.9646 2.88355C8.39106 2.88355 8.79032 2.99939 9.13274 3.20099L9.13274 7.15434Z" fill="white"/>
<path d="M9.13274 17.5659C9.13274 18.1897 8.6256 18.6953 8 18.6953C7.3744 18.6953 6.86726 18.1897 6.86726 17.5659L6.86726 8.34779C7.2112 8.46613 7.58033 8.53061 7.9646 8.53061C8.37535 8.53061 8.76888 8.45711 9.13274 8.3227L9.13274 17.5659Z" fill="white"/>
<path d="M13.6991 15.3777C12.4284 15.3777 11.3982 14.3506 11.3982 13.0835C11.3982 11.8165 12.4284 10.7894 13.6991 10.7894C14.9699 10.7894 16 11.8165 16 13.0835C16 14.3506 14.9699 15.3777 13.6991 15.3777Z" fill="white"/>
<path d="M14.7965 9.91342C14.4525 9.79508 14.0834 9.73061 13.6991 9.73061C13.2884 9.73061 12.8948 9.80411 12.531 9.93851L12.531 1.82472C12.531 1.20097 13.0381 0.695312 13.6637 0.695312C14.2893 0.695312 14.7965 1.20097 14.7965 1.82472L14.7965 9.91342Z" fill="white"/>
<path d="M14.7965 15.1004C14.4703 15.2772 14.0965 15.3777 13.6991 15.3777C13.2727 15.3777 12.8734 15.2618 12.531 15.0602L12.531 11.1069C12.8734 10.9053 13.2727 10.7894 13.6991 10.7894C14.0965 10.7894 14.4703 10.8899 14.7965 11.0667L14.7965 15.1004Z" fill="white"/>
<path d="M14.7965 17.5659C14.7965 18.1897 14.2893 18.6953 13.6637 18.6953C13.0381 18.6953 12.531 18.1897 12.531 17.5659L12.531 16.2286C12.8948 16.363 13.2884 16.4365 13.6991 16.4365C14.0834 16.4365 14.4525 16.372 14.7965 16.2537L14.7965 17.5659Z" fill="white"/>
<path d="M2.30089 16.5071C1.03014 16.5071 3.07417e-07 15.48 3.62799e-07 14.213C4.18182e-07 12.946 1.03014 11.9188 2.30089 11.9188C3.57163 11.9188 4.60177 12.946 4.60177 14.213C4.60177 15.48 3.57163 16.5071 2.30089 16.5071Z" fill="white"/>
<path d="M3.46903 11.0679C3.10516 10.9335 2.71164 10.86 2.30089 10.86C1.91662 10.86 1.54748 10.9245 1.20354 11.0428L1.20354 1.82472C1.20354 1.20097 1.71069 0.695312 2.33628 0.695312C2.96188 0.695312 3.46903 1.20097 3.46903 1.82472L3.46903 11.0679Z" fill="white"/>
<path d="M3.46903 16.1896C3.12661 16.3912 2.72734 16.5071 2.30089 16.5071C1.90353 16.5071 1.52971 16.4066 1.20354 16.2298L1.20354 12.1961C1.52971 12.0193 1.90353 11.9188 2.30089 11.9188C2.72734 11.9188 3.12661 12.0347 3.46903 12.2363L3.46903 16.1896Z" fill="white"/>
<path d="M3.46903 17.5659C3.46903 18.1897 2.96188 18.6953 2.33628 18.6953C1.71069 18.6953 1.20354 18.1897 1.20354 17.5659L1.20354 17.3831C1.54748 17.5014 1.91662 17.5659 2.30089 17.5659C2.71164 17.5659 3.10516 17.4924 3.46903 17.358L3.46903 17.5659Z" fill="white"/>
</svg>
