<svg width="19" height="20" viewBox="0 0 19 20" fill="none" xmlns="http://www.w3.org/2000/svg">
<path d="M0 2.73529C0 1.50078 1.00078 0.5 2.23529 0.5H6.70588C7.9404 0.5 8.94118 1.50078 8.94118 2.73529V7.20588C8.94118 8.4404 7.9404 9.44118 6.70588 9.44118H2.23529C1.00078 9.44118 0 8.4404 0 7.20588V2.73529Z" fill="white"/>
<path d="M0 15.0294C0 12.922 0 11.8682 0.654702 11.2135C1.3094 10.5588 2.36313 10.5588 4.47059 10.5588C6.57804 10.5588 7.63177 10.5588 8.28647 11.2135C8.94118 11.8682 8.94118 12.922 8.94118 15.0294C8.94118 17.1369 8.94118 18.1906 8.28647 18.8453C7.63177 19.5 6.57804 19.5 4.47059 19.5C2.36313 19.5 1.3094 19.5 0.654702 18.8453C0 18.1906 0 17.1369 0 15.0294Z" fill="white"/>
<path d="M10.0588 4.97059C10.0588 2.86313 10.0588 1.8094 10.7135 1.1547C11.3682 0.5 12.422 0.5 14.5294 0.5C16.6369 0.5 17.6906 0.5 18.3453 1.1547C19 1.8094 19 2.86313 19 4.97059C19 7.07804 19 8.13177 18.3453 8.78647C17.6906 9.44118 16.6369 9.44118 14.5294 9.44118C12.422 9.44118 11.3682 9.44118 10.7135 8.78647C10.0588 8.13177 10.0588 7.07804 10.0588 4.97059Z" fill="white"/>
<path d="M10.0588 15.0294C10.0588 12.922 10.0588 11.8682 10.7135 11.2135C11.3682 10.5588 12.422 10.5588 14.5294 10.5588C16.6369 10.5588 17.6906 10.5588 18.3453 11.2135C19 11.8682 19 12.922 19 15.0294C19 17.1369 19 18.1906 18.3453 18.8453C17.6906 19.5 16.6369 19.5 14.5294 19.5C12.422 19.5 11.3682 19.5 10.7135 18.8453C10.0588 18.1906 10.0588 17.1369 10.0588 15.0294Z" fill="white"/>
</svg>
