<svg width="19" height="20" viewBox="0 0 19 20" fill="none" xmlns="http://www.w3.org/2000/svg">
<path d="M0 2.69141C0 1.44877 1.00078 0.441406 2.23529 0.441406L16.7647 0.441406C17.9992 0.441406 19 1.44877 19 2.69141V7.19141C19 8.43405 17.9992 9.44141 16.7647 9.44141H2.23529C1.00078 9.44141 0 8.43405 0 7.19141V2.69141Z" fill="#262626"/>
<path d="M0 12.6914C0 11.4488 1.00078 10.4414 2.23529 10.4414L16.7647 10.4414C17.9992 10.4414 19 11.4488 19 12.6914V17.1914C19 18.434 17.9992 19.4414 16.7647 19.4414H2.23529C1.00078 19.4414 0 18.434 0 17.1914V12.6914Z" fill="#262626"/>
</svg>
