<svg width="199" height="34" viewBox="0 0 199 34" fill="none" xmlns="http://www.w3.org/2000/svg">
<path d="M41.9302 17.9773C41.9302 16.1013 42.1395 14.613 42.5581 13.5122C42.9922 12.4114 43.7287 11.6207 44.7674 11.1401C45.8217 10.6595 47.2868 10.4192 49.1627 10.4192C50.5736 10.4192 51.7441 10.551 52.6743 10.8145C53.6045 11.0781 54.341 11.5045 54.8836 12.0936C55.4262 12.6827 55.8061 13.4657 56.0231 14.4424C56.2557 15.4037 56.3719 16.5819 56.3719 17.9773C56.3719 19.3881 56.2557 20.5819 56.0231 21.5586C55.8061 22.5199 55.4262 23.295 54.8836 23.8842C54.341 24.4733 53.6045 24.8997 52.6743 25.1632C51.7441 25.4268 50.5736 25.5586 49.1627 25.5586C47.7519 25.5586 46.5813 25.4268 45.6511 25.1632C44.7209 24.8997 43.9845 24.4733 43.4418 23.8842C42.8992 23.295 42.5116 22.5199 42.2791 21.5586C42.0465 20.5819 41.9302 19.3881 41.9302 17.9773ZM49.1627 22.3028C50.155 22.3028 50.8991 22.1788 51.3953 21.9307C51.8914 21.6827 52.2247 21.2486 52.3952 20.6284C52.5658 19.9928 52.6511 19.109 52.6511 17.9773C52.6511 16.861 52.5658 15.9928 52.3952 15.3726C52.2247 14.7525 51.8914 14.3184 51.3953 14.0703C50.8991 13.8068 50.155 13.675 49.1627 13.675C48.186 13.675 47.4418 13.8068 46.9302 14.0703C46.4341 14.3184 46.093 14.7525 45.9069 15.3726C45.7364 15.9928 45.6511 16.861 45.6511 17.9773C45.6511 19.109 45.7364 19.9928 45.9069 20.6284C46.093 21.2486 46.4341 21.6827 46.9302 21.9307C47.4418 22.1788 48.186 22.3028 49.1627 22.3028ZM72.12 10.6518L67.5386 25.3493H62.4224L58.0736 10.6518H62.2364C62.4844 11.4269 62.748 12.3107 63.027 13.3029C63.3061 14.2951 63.5774 15.3106 63.841 16.3494C64.1201 17.3726 64.3604 18.3339 64.5619 19.2331C64.779 20.1168 64.9418 20.8532 65.0503 21.4424H65.1433C65.2518 20.8532 65.4069 20.1168 65.6084 19.2331C65.8255 18.3339 66.0658 17.3726 66.3293 16.3494C66.6084 15.3261 66.8875 14.3184 67.1665 13.3262C67.4456 12.3339 67.7092 11.4424 67.9572 10.6518H72.12ZM74.2582 25.3493V10.6285H85.1884V13.6517H77.9791V16.4424H84.2349V19.4656H77.9791V22.3261H85.1884V25.3493H74.2582ZM90.7652 25.3493H87.0443V10.6285H94.0675C95.9124 10.6285 97.2535 11.0471 98.0907 11.8843C98.9434 12.706 99.3697 13.923 99.3697 15.5354C99.3697 16.7447 99.0674 17.7835 98.4628 18.6517C97.8581 19.5044 97.0597 20.0393 96.0674 20.2563L96.0442 20.3261C96.4318 20.5741 96.8581 20.985 97.3232 21.5586C97.7883 22.1323 98.2457 22.7602 98.6953 23.4423C99.1604 24.109 99.5713 24.7369 99.9279 25.326V25.3493H95.6023L93.0907 21.6284C92.8737 21.3028 92.6954 21.0703 92.5558 20.9307C92.4318 20.7912 92.2768 20.7059 92.0907 20.6749C91.9202 20.6439 91.6411 20.6284 91.2535 20.6284H90.7652V25.3493ZM93.4628 13.6517H90.7652V17.6052H93.4628C94.238 17.6052 94.7729 17.4501 95.0674 17.1401C95.3775 16.83 95.5326 16.3261 95.5326 15.6285C95.5326 14.9308 95.3775 14.4269 95.0674 14.1168C94.7729 13.8068 94.238 13.6517 93.4628 13.6517ZM113.01 22.1633V25.0935C112.266 25.2485 111.537 25.3648 110.824 25.4423C110.111 25.5198 109.266 25.5586 108.289 25.5586C107.033 25.5586 105.971 25.4501 105.103 25.233C104.25 25.016 103.56 24.6361 103.033 24.0935C102.522 23.5354 102.149 22.7524 101.917 21.7447C101.684 20.7369 101.568 19.4424 101.568 17.861C101.568 16.3416 101.684 15.0936 101.917 14.1168C102.149 13.1401 102.522 12.3882 103.033 11.861C103.56 11.3184 104.25 10.9463 105.103 10.7448C105.971 10.5277 107.033 10.4192 108.289 10.4192C109.266 10.4192 110.111 10.458 110.824 10.5355C111.537 10.5975 112.266 10.7138 113.01 10.8843V13.9075L112.94 13.9541C112.289 13.799 111.661 13.6905 111.056 13.6285C110.452 13.551 109.708 13.5122 108.824 13.5122C108.111 13.5122 107.522 13.5665 107.056 13.675C106.607 13.768 106.25 13.9618 105.987 14.2564C105.723 14.5509 105.537 14.9851 105.429 15.5587C105.336 16.1323 105.289 16.8998 105.289 17.861C105.289 18.8687 105.336 19.6827 105.429 20.3028C105.537 20.9075 105.723 21.3648 105.987 21.6749C106.25 21.985 106.607 22.1943 107.056 22.3028C107.522 22.4113 108.111 22.4656 108.824 22.4656C109.692 22.4656 110.428 22.4423 111.033 22.3958C111.653 22.3338 112.273 22.2253 112.894 22.0703L113.01 22.1633ZM114.513 17.9773C114.513 16.1013 114.722 14.613 115.141 13.5122C115.575 12.4114 116.312 11.6207 117.35 11.1401C118.405 10.6595 119.87 10.4192 121.746 10.4192C123.156 10.4192 124.327 10.551 125.257 10.8145C126.187 11.0781 126.924 11.5045 127.466 12.0936C128.009 12.6827 128.389 13.4657 128.606 14.4424C128.839 15.4037 128.955 16.5819 128.955 17.9773C128.955 19.3881 128.839 20.5819 128.606 21.5586C128.389 22.5199 128.009 23.295 127.466 23.8842C126.924 24.4733 126.187 24.8997 125.257 25.1632C124.327 25.4268 123.156 25.5586 121.746 25.5586C120.335 25.5586 119.164 25.4268 118.234 25.1632C117.304 24.8997 116.567 24.4733 116.025 23.8842C115.482 23.295 115.095 22.5199 114.862 21.5586C114.629 20.5819 114.513 19.3881 114.513 17.9773ZM121.746 22.3028C122.738 22.3028 123.482 22.1788 123.978 21.9307C124.474 21.6827 124.808 21.2486 124.978 20.6284C125.149 19.9928 125.234 19.109 125.234 17.9773C125.234 16.861 125.149 15.9928 124.978 15.3726C124.808 14.7525 124.474 14.3184 123.978 14.0703C123.482 13.8068 122.738 13.675 121.746 13.675C120.769 13.675 120.025 13.8068 119.513 14.0703C119.017 14.3184 118.676 14.7525 118.49 15.3726C118.319 15.9928 118.234 16.861 118.234 17.9773C118.234 19.109 118.319 19.9928 118.49 20.6284C118.676 21.2486 119.017 21.6827 119.513 21.9307C120.025 22.1788 120.769 22.3028 121.746 22.3028ZM144.028 10.6285V19.3028C144.028 20.8222 143.842 22.0392 143.47 22.954C143.114 23.8687 142.486 24.5353 141.587 24.9539C140.687 25.357 139.416 25.5586 137.773 25.5586C136.067 25.5586 134.742 25.357 133.796 24.9539C132.866 24.5353 132.215 23.8687 131.843 22.954C131.47 22.0392 131.284 20.8222 131.284 19.3028V10.6285H135.005V19.2331C135.005 20.0238 135.083 20.6439 135.238 21.0935C135.393 21.5431 135.672 21.861 136.075 22.047C136.478 22.2175 137.044 22.3028 137.773 22.3028C138.455 22.3028 138.974 22.2175 139.331 22.047C139.703 21.861 139.959 21.5431 140.098 21.0935C140.238 20.6439 140.308 20.0238 140.308 19.2331V10.6285H144.028ZM150.539 25.3493H146.818V10.6285H153.842C155.687 10.6285 157.028 11.0471 157.865 11.8843C158.718 12.706 159.144 13.923 159.144 15.5354C159.144 16.7447 158.842 17.7835 158.237 18.6517C157.632 19.5044 156.834 20.0393 155.842 20.2563L155.818 20.3261C156.206 20.5741 156.632 20.985 157.097 21.5586C157.562 22.1323 158.02 22.7602 158.469 23.4423C158.935 24.109 159.345 24.7369 159.702 25.326V25.3493H155.376L152.865 21.6284C152.648 21.3028 152.47 21.0703 152.33 20.9307C152.206 20.7912 152.051 20.7059 151.865 20.6749C151.694 20.6439 151.415 20.6284 151.028 20.6284H150.539V25.3493ZM153.237 13.6517H150.539V17.6052H153.237C154.012 17.6052 154.547 17.4501 154.842 17.1401C155.152 16.83 155.307 16.3261 155.307 15.6285C155.307 14.9308 155.152 14.4269 154.842 14.1168C154.547 13.8068 154.012 13.6517 153.237 13.6517ZM161.435 21.5586C162.117 21.7912 162.862 21.9772 163.668 22.1168C164.49 22.2408 165.303 22.3028 166.11 22.3028C167.21 22.3028 168.024 22.2563 168.551 22.1633C169.094 22.0548 169.451 21.892 169.621 21.6749C169.792 21.4579 169.877 21.1788 169.877 20.8377C169.877 20.5431 169.815 20.3106 169.691 20.14C169.567 19.9695 169.327 19.8377 168.97 19.7447C168.613 19.6362 168.086 19.5509 167.389 19.4889L165.854 19.3493C164.707 19.2408 163.8 19.0005 163.133 18.6284C162.482 18.2563 162.017 17.7602 161.738 17.1401C161.474 16.5044 161.342 15.7447 161.342 14.861C161.342 13.8068 161.552 12.9541 161.97 12.3029C162.404 11.6517 163.102 11.1789 164.063 10.8843C165.024 10.5742 166.303 10.4192 167.9 10.4192C169.978 10.4192 171.691 10.6905 173.04 11.2331L172.97 14.3959L172.9 14.4889C171.365 13.9463 169.761 13.675 168.086 13.675C167.28 13.675 166.66 13.7215 166.226 13.8145C165.792 13.892 165.489 14.0238 165.319 14.2099C165.148 14.3959 165.063 14.6595 165.063 15.0006C165.063 15.3416 165.117 15.5974 165.226 15.768C165.35 15.9385 165.59 16.0703 165.947 16.1633C166.303 16.2409 166.823 16.3184 167.505 16.3959L168.97 16.5587C170.21 16.6982 171.164 16.9463 171.831 17.3029C172.497 17.6594 172.955 18.1401 173.203 18.7447C173.466 19.3338 173.598 20.0548 173.598 20.9075C173.598 21.9462 173.373 22.8144 172.924 23.5121C172.489 24.1943 171.776 24.7059 170.784 25.047C169.792 25.3881 168.466 25.5586 166.807 25.5586C165.722 25.5586 164.745 25.5043 163.877 25.3958C163.009 25.2718 162.164 25.109 161.342 24.9074V21.6284L161.435 21.5586ZM175.933 25.3493V10.6285H186.863V13.6517H179.654V16.4424H185.91V19.4656H179.654V22.3261H186.863V25.3493H175.933ZM187.557 25.6981H198.44V28.7214H187.557V25.6981Z" fill="#262626"/>
<path d="M7.06731 4.2279C7.13259 4.12169 7.26313 4.00731 7.36104 3.96646C7.45895 3.92562 8.72361 3.89294 10.1678 3.88477C12.3544 3.88477 12.844 3.90111 13.0479 4.00731C13.1785 4.07267 13.3417 4.23607 13.4151 4.37496C13.5212 4.58738 13.5375 6.09882 13.5375 28.3946L13.3335 28.5988C13.2193 28.705 13.0071 28.8194 12.8603 28.8439C12.7134 28.8684 11.408 28.8766 7.32024 28.8439L6.96125 28.4354L6.89597 19.6527C6.86333 14.8161 6.85518 9.41581 6.88781 7.64294C6.93677 4.98771 6.96125 4.38313 7.06731 4.2279Z" fill="#262626"/>
<path d="M16.3687 7.1364C17.103 6.87496 18.0005 6.57267 18.3677 6.45829C18.743 6.35209 19.1265 6.25405 19.2244 6.25405C19.3304 6.25405 19.5099 6.30307 19.6323 6.36843C19.7547 6.42562 19.9179 6.54816 19.9913 6.62986C20.0648 6.71156 20.4972 7.83084 20.9459 9.11352C21.4029 10.388 22.7083 14.1054 23.8506 17.3652C24.9929 20.6168 26.1678 23.9583 26.4615 24.7753C26.7552 25.5923 27 26.3766 27 26.5155C27 26.6789 26.9103 26.8532 26.7308 27.0384C26.5431 27.2426 26.1841 27.4469 25.5314 27.7246C25.0092 27.9452 24.1117 28.2802 23.5324 28.4763C22.9449 28.6642 22.3004 28.8276 22.0882 28.8357C21.819 28.8357 21.6639 28.7949 21.5334 28.6805C21.4273 28.5906 21.2805 28.3864 21.207 28.2312C21.1254 28.0678 20.6522 26.7688 20.1627 25.3308C19.7001 23.972 18.7201 21.1175 17.9321 18.822L17.7965 18.4272C16.9888 16.0661 16.026 13.2884 15.6588 12.2589C15.2835 11.2214 14.8429 10.0204 14.6716 9.57921C14.4921 9.13803 14.3534 8.68052 14.3534 8.55797C14.3534 8.43542 14.4268 8.21483 14.5166 8.06777C14.6063 7.92071 14.7613 7.75731 14.8593 7.7083C14.9653 7.65928 15.6425 7.39784 16.3687 7.1364Z" fill="#262626"/>
<path d="M0.123916 6.98117L0.385006 6.73607L0.646098 6.49914H5.05201L5.62315 7.07104V17.6511C5.62315 24.5139 5.59051 28.2965 5.54156 28.4354C5.49261 28.5416 5.32942 28.6887 5.1744 28.7622C4.94595 28.8603 4.47272 28.8848 2.76747 28.8848C1.04589 28.8848 0.597144 28.8603 0.401325 28.7622C0.262621 28.6887 0.115757 28.5661 0.0749613 28.4763C0.0178476 28.3701 -0.00662925 25.2165 0.00152985 19.4648C0.00152985 14.6037 0.0341663 9.7998 0.123916 6.98117Z" fill="#262626"/>
</svg>
