<svg width="199" height="34" viewBox="0 0 199 34" fill="none" xmlns="http://www.w3.org/2000/svg">
<path d="M41.9302 18.0925C41.9302 16.2166 42.1395 14.7282 42.5581 13.6274C42.9922 12.5267 43.7287 11.736 44.7674 11.2554C45.8217 10.7747 47.2868 10.5344 49.1627 10.5344C50.5736 10.5344 51.7441 10.6662 52.6743 10.9298C53.6045 11.1933 54.341 11.6197 54.8836 12.2088C55.4262 12.798 55.8061 13.5809 56.0231 14.5577C56.2557 15.5189 56.3719 16.6972 56.3719 18.0925C56.3719 19.5033 56.2557 20.6971 56.0231 21.6739C55.8061 22.6351 55.4262 23.4103 54.8836 23.9994C54.341 24.5886 53.6045 25.0149 52.6743 25.2785C51.7441 25.542 50.5736 25.6738 49.1627 25.6738C47.7519 25.6738 46.5813 25.542 45.6511 25.2785C44.7209 25.0149 43.9845 24.5886 43.4418 23.9994C42.8992 23.4103 42.5116 22.6351 42.2791 21.6739C42.0465 20.6971 41.9302 19.5033 41.9302 18.0925ZM49.1627 22.418C50.155 22.418 50.8991 22.294 51.3953 22.046C51.8914 21.7979 52.2247 21.3638 52.3952 20.7436C52.5658 20.108 52.6511 19.2243 52.6511 18.0925C52.6511 16.9762 52.5658 16.108 52.3952 15.4879C52.2247 14.8677 51.8914 14.4336 51.3953 14.1856C50.8991 13.922 50.155 13.7902 49.1627 13.7902C48.186 13.7902 47.4418 13.922 46.9302 14.1856C46.4341 14.4336 46.093 14.8677 45.9069 15.4879C45.7364 16.108 45.6511 16.9762 45.6511 18.0925C45.6511 19.2243 45.7364 20.108 45.9069 20.7436C46.093 21.3638 46.4341 21.7979 46.9302 22.046C47.4418 22.294 48.186 22.418 49.1627 22.418ZM72.12 10.767L67.5386 25.4645H62.4224L58.0736 10.767H62.2364C62.4844 11.5422 62.748 12.4259 63.027 13.4181C63.3061 14.4104 63.5774 15.4259 63.841 16.4646C64.1201 17.4879 64.3604 18.4491 64.5619 19.3483C64.779 20.232 64.9418 20.9684 65.0503 21.5576H65.1433C65.2518 20.9684 65.4069 20.232 65.6084 19.3483C65.8255 18.4491 66.0658 17.4879 66.3293 16.4646C66.6084 15.4414 66.8875 14.4336 67.1665 13.4414C67.4456 12.4491 67.7092 11.5577 67.9572 10.767H72.12ZM74.2582 25.4645V10.7437H85.1884V13.767H77.9791V16.5576H84.2349V19.5809H77.9791V22.4413H85.1884V25.4645H74.2582ZM90.7652 25.4645H87.0443V10.7437H94.0675C95.9124 10.7437 97.2535 11.1623 98.0907 11.9995C98.9434 12.8212 99.3697 14.0383 99.3697 15.6507C99.3697 16.86 99.0674 17.8987 98.4628 18.7669C97.8581 19.6196 97.0597 20.1545 96.0674 20.3716L96.0442 20.4413C96.4318 20.6894 96.8581 21.1002 97.3232 21.6739C97.7883 22.2475 98.2457 22.8754 98.6953 23.5576C99.1604 24.2242 99.5713 24.8521 99.9279 25.4413V25.4645H95.6023L93.0907 21.7436C92.8737 21.4181 92.6954 21.1855 92.5558 21.046C92.4318 20.9064 92.2768 20.8212 92.0907 20.7902C91.9202 20.7591 91.6411 20.7436 91.2535 20.7436H90.7652V25.4645ZM93.4628 13.767H90.7652V17.7204H93.4628C94.238 17.7204 94.7729 17.5654 95.0674 17.2553C95.3775 16.9452 95.5326 16.4414 95.5326 15.7437C95.5326 15.046 95.3775 14.5421 95.0674 14.2321C94.7729 13.922 94.238 13.767 93.4628 13.767ZM113.01 22.2785V25.2087C112.266 25.3638 111.537 25.48 110.824 25.5576C110.111 25.6351 109.266 25.6738 108.289 25.6738C107.033 25.6738 105.971 25.5653 105.103 25.3482C104.25 25.1312 103.56 24.7514 103.033 24.2087C102.522 23.6506 102.149 22.8677 101.917 21.8599C101.684 20.8522 101.568 19.5576 101.568 17.9762C101.568 16.4569 101.684 15.2088 101.917 14.2321C102.149 13.2553 102.522 12.5034 103.033 11.9763C103.56 11.4337 104.25 11.0616 105.103 10.86C105.971 10.643 107.033 10.5344 108.289 10.5344C109.266 10.5344 110.111 10.5732 110.824 10.6507C111.537 10.7127 112.266 10.829 113.01 10.9995V14.0228L112.94 14.0693C112.289 13.9142 111.661 13.8057 111.056 13.7437C110.452 13.6662 109.708 13.6274 108.824 13.6274C108.111 13.6274 107.522 13.6817 107.056 13.7902C106.607 13.8832 106.25 14.077 105.987 14.3716C105.723 14.6662 105.537 15.1003 105.429 15.6739C105.336 16.2476 105.289 17.015 105.289 17.9762C105.289 18.984 105.336 19.7979 105.429 20.4181C105.537 21.0227 105.723 21.4801 105.987 21.7901C106.25 22.1002 106.607 22.3095 107.056 22.418C107.522 22.5266 108.111 22.5808 108.824 22.5808C109.692 22.5808 110.428 22.5576 111.033 22.5111C111.653 22.4491 112.273 22.3405 112.894 22.1855L113.01 22.2785ZM114.513 18.0925C114.513 16.2166 114.722 14.7282 115.141 13.6274C115.575 12.5267 116.312 11.736 117.35 11.2554C118.405 10.7747 119.87 10.5344 121.746 10.5344C123.156 10.5344 124.327 10.6662 125.257 10.9298C126.187 11.1933 126.924 11.6197 127.466 12.2088C128.009 12.798 128.389 13.5809 128.606 14.5577C128.839 15.5189 128.955 16.6972 128.955 18.0925C128.955 19.5033 128.839 20.6971 128.606 21.6739C128.389 22.6351 128.009 23.4103 127.466 23.9994C126.924 24.5886 126.187 25.0149 125.257 25.2785C124.327 25.542 123.156 25.6738 121.746 25.6738C120.335 25.6738 119.164 25.542 118.234 25.2785C117.304 25.0149 116.567 24.5886 116.025 23.9994C115.482 23.4103 115.095 22.6351 114.862 21.6739C114.629 20.6971 114.513 19.5033 114.513 18.0925ZM121.746 22.418C122.738 22.418 123.482 22.294 123.978 22.046C124.474 21.7979 124.808 21.3638 124.978 20.7436C125.149 20.108 125.234 19.2243 125.234 18.0925C125.234 16.9762 125.149 16.108 124.978 15.4879C124.808 14.8677 124.474 14.4336 123.978 14.1856C123.482 13.922 122.738 13.7902 121.746 13.7902C120.769 13.7902 120.025 13.922 119.513 14.1856C119.017 14.4336 118.676 14.8677 118.49 15.4879C118.319 16.108 118.234 16.9762 118.234 18.0925C118.234 19.2243 118.319 20.108 118.49 20.7436C118.676 21.3638 119.017 21.7979 119.513 22.046C120.025 22.294 120.769 22.418 121.746 22.418ZM144.028 10.7437V19.4181C144.028 20.9374 143.842 22.1545 143.47 23.0692C143.114 23.9839 142.486 24.6506 141.587 25.0692C140.687 25.4723 139.416 25.6738 137.773 25.6738C136.067 25.6738 134.742 25.4723 133.796 25.0692C132.866 24.6506 132.215 23.9839 131.843 23.0692C131.47 22.1545 131.284 20.9374 131.284 19.4181V10.7437H135.005V19.3483C135.005 20.139 135.083 20.7591 135.238 21.2088C135.393 21.6584 135.672 21.9762 136.075 22.1622C136.478 22.3328 137.044 22.418 137.773 22.418C138.455 22.418 138.974 22.3328 139.331 22.1622C139.703 21.9762 139.959 21.6584 140.098 21.2088C140.238 20.7591 140.308 20.139 140.308 19.3483V10.7437H144.028ZM150.539 25.4645H146.818V10.7437H153.842C155.687 10.7437 157.028 11.1623 157.865 11.9995C158.718 12.8212 159.144 14.0383 159.144 15.6507C159.144 16.86 158.842 17.8987 158.237 18.7669C157.632 19.6196 156.834 20.1545 155.842 20.3716L155.818 20.4413C156.206 20.6894 156.632 21.1002 157.097 21.6739C157.562 22.2475 158.02 22.8754 158.469 23.5576C158.935 24.2242 159.345 24.8521 159.702 25.4413V25.4645H155.376L152.865 21.7436C152.648 21.4181 152.47 21.1855 152.33 21.046C152.206 20.9064 152.051 20.8212 151.865 20.7902C151.694 20.7591 151.415 20.7436 151.028 20.7436H150.539V25.4645ZM153.237 13.767H150.539V17.7204H153.237C154.012 17.7204 154.547 17.5654 154.842 17.2553C155.152 16.9452 155.307 16.4414 155.307 15.7437C155.307 15.046 155.152 14.5421 154.842 14.2321C154.547 13.922 154.012 13.767 153.237 13.767ZM161.435 21.6739C162.117 21.9064 162.862 22.0925 163.668 22.232C164.49 22.356 165.303 22.418 166.11 22.418C167.21 22.418 168.024 22.3715 168.551 22.2785C169.094 22.17 169.451 22.0072 169.621 21.7901C169.792 21.5731 169.877 21.294 169.877 20.9529C169.877 20.6584 169.815 20.4258 169.691 20.2553C169.567 20.0847 169.327 19.953 168.97 19.8599C168.613 19.7514 168.086 19.6661 167.389 19.6041L165.854 19.4646C164.707 19.3561 163.8 19.1158 163.133 18.7437C162.482 18.3716 162.017 17.8755 161.738 17.2553C161.474 16.6196 161.342 15.86 161.342 14.9763C161.342 13.922 161.552 13.0693 161.97 12.4181C162.404 11.767 163.102 11.2941 164.063 10.9995C165.024 10.6895 166.303 10.5344 167.9 10.5344C169.978 10.5344 171.691 10.8058 173.04 11.3484L172.97 14.5111L172.9 14.6042C171.365 14.0615 169.761 13.7902 168.086 13.7902C167.28 13.7902 166.66 13.8367 166.226 13.9298C165.792 14.0073 165.489 14.1391 165.319 14.3251C165.148 14.5111 165.063 14.7747 165.063 15.1158C165.063 15.4569 165.117 15.7127 165.226 15.8832C165.35 16.0538 165.59 16.1855 165.947 16.2786C166.303 16.3561 166.823 16.4336 167.505 16.5111L168.97 16.6739C170.21 16.8134 171.164 17.0615 171.831 17.4181C172.497 17.7747 172.955 18.2553 173.203 18.8599C173.466 19.4491 173.598 20.17 173.598 21.0227C173.598 22.0615 173.373 22.9297 172.924 23.6273C172.489 24.3095 171.776 24.8211 170.784 25.1622C169.792 25.5033 168.466 25.6738 166.807 25.6738C165.722 25.6738 164.745 25.6196 163.877 25.511C163.009 25.387 162.164 25.2242 161.342 25.0227V21.7436L161.435 21.6739ZM175.933 25.4645V10.7437H186.863V13.767H179.654V16.5576H185.91V19.5809H179.654V22.4413H186.863V25.4645H175.933ZM187.557 25.8134H198.44V28.8366H187.557V25.8134Z" fill="white"/>
<path d="M7.06731 4.34314C7.13259 4.23693 7.26313 4.12255 7.36104 4.0817C7.45895 4.04085 8.72361 4.00817 10.1678 4C12.3544 4 12.844 4.01634 13.0479 4.12255C13.1785 4.18791 13.3417 4.35131 13.4151 4.4902C13.5212 4.70261 13.5375 6.21405 13.5375 28.5098L13.3335 28.7141C13.2193 28.8203 13.0071 28.9346 12.8603 28.9592C12.7134 28.9837 11.408 28.9918 7.32024 28.9592L6.96125 28.5507L6.89597 19.768C6.86333 14.9314 6.85518 9.53105 6.88781 7.75817C6.93677 5.10294 6.96125 4.49837 7.06731 4.34314Z" fill="white"/>
<path d="M16.3687 7.25163C17.103 6.9902 18.0005 6.68791 18.3677 6.57353C18.743 6.46732 19.1265 6.36928 19.2244 6.36928C19.3304 6.36928 19.5099 6.4183 19.6323 6.48366C19.7547 6.54085 19.9179 6.6634 19.9913 6.7451C20.0648 6.8268 20.4972 7.94608 20.9459 9.22876C21.4029 10.5033 22.7083 14.2206 23.8506 17.4804C24.9929 20.732 26.1678 24.0735 26.4615 24.8905C26.7552 25.7075 27 26.4918 27 26.6307C27 26.7941 26.9103 26.9684 26.7308 27.1536C26.5431 27.3578 26.1841 27.5621 25.5314 27.8399C25.0092 28.0605 24.1117 28.3954 23.5324 28.5915C22.9449 28.7794 22.3004 28.9428 22.0882 28.951C21.819 28.951 21.6639 28.9101 21.5334 28.7958C21.4273 28.7059 21.2805 28.5016 21.207 28.3464C21.1254 28.183 20.6522 26.884 20.1627 25.4461C19.7001 24.0873 18.7201 21.2328 17.9321 18.9372L17.7965 18.5425C16.9888 16.1814 16.026 13.4036 15.6588 12.3742C15.2835 11.3366 14.8429 10.1356 14.6716 9.69444C14.4921 9.25327 14.3534 8.79575 14.3534 8.6732C14.3534 8.55065 14.4268 8.33007 14.5166 8.18301C14.6063 8.03595 14.7613 7.87255 14.8593 7.82353C14.9653 7.77451 15.6425 7.51307 16.3687 7.25163Z" fill="white"/>
<path d="M0.123916 7.09641L0.385006 6.85131L0.646098 6.61438H5.05201L5.62315 7.18627V17.7663C5.62315 24.6291 5.59051 28.4118 5.54156 28.5507C5.49261 28.6569 5.32942 28.8039 5.1744 28.8775C4.94595 28.9755 4.47272 29 2.76747 29C1.04589 29 0.597144 28.9755 0.401325 28.8775C0.262621 28.8039 0.115757 28.6814 0.0749613 28.5915C0.0178476 28.4853 -0.00662925 25.3317 0.00152985 19.5801C0.00152985 14.719 0.0341663 9.91503 0.123916 7.09641Z" fill="white"/>
</svg>
