<svg width="17" height="13" viewBox="0 0 17 13" fill="none" xmlns="http://www.w3.org/2000/svg">
<path d="M0 1.88462C0 1.11991 0.619914 0.5 1.38462 0.5H15.6154C16.3801 0.5 17 1.11991 17 1.88462C17 2.64932 16.3801 3.26923 15.6154 3.26923H1.38462C0.619914 3.26923 0 2.64932 0 1.88462Z" fill="#262626"/>
<path d="M0 6.5C0 5.7353 0.619914 5.11538 1.38462 5.11538H9.00427C9.76897 5.11538 10.3889 5.7353 10.3889 6.5C10.3889 7.2647 9.76898 7.88462 9.00427 7.88462H1.38462C0.619915 7.88462 0 7.2647 0 6.5Z" fill="#262626"/>
<path d="M0 11.1154C0 10.3507 0.619913 9.73077 1.38462 9.73077H4.28205C5.04675 9.73077 5.66667 10.3507 5.66667 11.1154C5.66667 11.8801 5.04675 12.5 4.28205 12.5H1.38461C0.619912 12.5 0 11.8801 0 11.1154Z" fill="#262626"/>
</svg>
