<svg width="13" height="17" viewBox="0 0 13 17" fill="none" xmlns="http://www.w3.org/2000/svg">
<path d="M12.8944 6.55817C12.9311 6.85052 12.9678 7.40201 12.9824 7.78739C12.9971 8.17276 13.0045 8.53156 12.9971 8.58472C12.9935 8.63787 12.9788 8.98338 12.9678 9.34882C12.9568 9.71427 12.9164 10.2757 12.8761 10.5947C12.8394 10.9136 12.7807 11.3189 12.7513 11.4916C12.7183 11.6644 12.6523 11.9933 12.6009 12.2225C12.5496 12.4518 12.4652 12.7807 12.4138 12.9534C12.3625 13.1262 12.2708 13.4119 12.2121 13.5846C12.1497 13.7574 12.0507 14.0198 11.992 14.166C11.9296 14.3122 11.8086 14.5747 11.7205 14.7474C11.6325 14.9202 11.4821 15.1893 11.383 15.3454C11.284 15.5016 11.1116 15.7407 11.0015 15.877C10.8878 16.0132 10.6934 16.2225 10.5613 16.3387C10.4329 16.455 10.2201 16.6145 10.0881 16.6909C9.95602 16.7673 9.75059 16.867 9.62953 16.9068C9.45712 16.97 9.33239 16.9866 9.06093 16.9866C8.8286 16.9888 8.64518 16.9711 8.51067 16.9334C8.40062 16.9002 8.20253 16.8205 8.07047 16.7507C7.94207 16.6809 7.68529 16.4882 7.4982 16.3255C7.27443 16.1261 7.07266 15.9035 6.90025 15.661C6.75351 15.4584 6.54808 15.1328 6.4417 14.9301C6.33165 14.7275 6.17758 14.4085 6.09687 14.2159C6.01617 14.0232 5.90245 13.7242 5.84008 13.5514C5.77772 13.3787 5.67867 13.0564 5.61998 12.8371C5.55762 12.6179 5.47324 12.2823 5.43289 12.0896C5.39254 11.897 5.33385 11.598 5.3045 11.4252C5.27515 11.2524 5.22379 10.9003 5.19445 10.6445C5.1651 10.3887 5.12108 9.96011 5.09907 9.68769C5.08073 9.41859 5.06238 8.88704 5.06238 8.50166C5.06238 8.11628 5.08073 7.58473 5.09907 7.31563C5.12108 7.04321 5.1651 6.61465 5.19445 6.35884C5.22379 6.10303 5.27515 5.75087 5.3045 5.57812C5.33385 5.40536 5.39254 5.10637 5.43289 4.91368C5.47324 4.72099 5.55762 4.38545 5.61998 4.16618C5.67868 3.94692 5.77772 3.62466 5.84008 3.45191C5.90245 3.27915 6.01617 2.98015 6.09687 2.78747C6.17758 2.59478 6.33165 2.27252 6.4417 2.07319C6.54808 1.87386 6.75351 1.54164 6.90025 1.34231C7.07266 1.09978 7.27443 0.877197 7.4982 0.677865C7.68529 0.511754 7.94207 0.322388 8.07047 0.252622C8.20253 0.182856 8.40062 0.103123 8.51068 0.0699007C8.64518 0.0322491 8.8286 0.0145307 9.06093 0.0167455C9.3324 0.0167455 9.45712 0.0333565 9.62954 0.0964785C9.75059 0.136345 9.95602 0.236011 10.0881 0.312422C10.2201 0.388833 10.4329 0.548299 10.5613 0.664576C10.6934 0.780853 10.8878 0.990152 11.0015 1.12636C11.1116 1.26257 11.284 1.50177 11.383 1.65792C11.4821 1.81406 11.6325 2.08316 11.7205 2.25591C11.8086 2.42867 11.9296 2.69112 11.992 2.8373C12.0507 2.98348 12.1497 3.24593 12.2121 3.41869C12.2708 3.59144 12.3625 3.87715 12.4138 4.0499C12.4652 4.22266 12.5496 4.55156 12.6009 4.78079C12.6523 5.01002 12.7257 5.38211 12.766 5.61134C12.8027 5.84057 12.8614 6.26582 12.8944 6.55817Z" fill="#262626"/>
<path d="M3.59503 0.093156C3.82614 0.0200674 3.88116 0.0167452 5.23847 0.00345648L5.2348 0.00345648C6.00883 -0.0031879 6.63979 0.000134332 6.63979 0.010101C6.63979 0.0200676 6.56276 0.109767 6.47105 0.206111C6.37567 0.299133 6.20692 0.498465 6.0932 0.644642C5.97948 0.79082 5.79973 1.04663 5.69702 1.20942C5.5943 1.37553 5.42922 1.67453 5.32651 1.87386C5.22746 2.07651 5.06605 2.43531 4.97067 2.67119C4.8753 2.91039 4.72489 3.34227 4.63685 3.63463C4.54881 3.92698 4.43509 4.35222 4.38373 4.58146C4.33237 4.81069 4.25901 5.19274 4.21865 5.42862C4.1783 5.66782 4.13061 5.98675 4.1086 6.14289C4.08659 6.29904 4.04624 6.73093 4.01689 7.10633C3.98754 7.48174 3.96187 8.10964 3.96187 8.50166C3.96187 8.89368 3.98754 9.52158 4.01689 9.89699C4.04624 10.2724 4.08659 10.7043 4.1086 10.8604C4.13061 11.0166 4.1783 11.3388 4.21865 11.5747C4.25901 11.8106 4.33237 12.1926 4.38373 12.4219C4.43509 12.6511 4.54881 13.0763 4.63685 13.3687C4.72489 13.661 4.8753 14.0963 4.97067 14.3321C5.06605 14.568 5.22746 14.9301 5.32651 15.1295C5.42922 15.3321 5.5943 15.6311 5.69702 15.7939C5.79973 15.96 5.97948 16.2125 6.0932 16.3587C6.20692 16.5049 6.37567 16.7042 6.47105 16.8005C6.56276 16.8936 6.63979 16.9799 6.63979 16.9899C6.63979 16.9999 6.00883 17.0032 5.23847 16.9965C3.87749 16.9866 3.82614 16.9833 3.59503 16.9102C3.46296 16.867 3.30522 16.8105 3.24653 16.7839C3.18783 16.754 3.04477 16.6743 2.93472 16.6078C2.82466 16.5414 2.62657 16.3952 2.49818 16.2889C2.36978 16.1826 2.15335 15.96 2.02128 15.7939C1.88555 15.6311 1.69847 15.3753 1.60676 15.2291C1.51138 15.083 1.36097 14.8205 1.27293 14.6477C1.18122 14.475 1.05283 14.1992 0.983129 14.0331C0.913431 13.8703 0.803378 13.5846 0.741016 13.4019C0.678653 13.2192 0.586943 12.9268 0.539254 12.7541C0.487896 12.5813 0.396187 12.2059 0.337492 11.9235C0.275129 11.6411 0.190756 11.1627 0.146736 10.8604C0.106384 10.5581 0.0550256 10.103 0.0366846 9.84715C0.0146738 9.59135 5.60853e-07 8.9867 5.82055e-07 8.50166C6.03257e-07 8.01662 0.0146739 7.41198 0.0366847 7.15617C0.0550258 6.90036 0.106384 6.44521 0.146736 6.14289C0.190757 5.84057 0.275129 5.36218 0.337493 5.07979C0.396188 4.7974 0.487897 4.42199 0.539254 4.24924C0.586943 4.07648 0.678654 3.78413 0.741016 3.60141C0.803378 3.41868 0.913431 3.1363 0.983129 2.97019C1.05283 2.8074 1.18122 2.52833 1.27293 2.35558C1.36098 2.18282 1.51138 1.92037 1.60676 1.77419C1.69847 1.62802 1.88555 1.37553 2.02129 1.20942C2.15335 1.04663 2.36978 0.820719 2.49818 0.714409C2.62657 0.608098 2.82466 0.461921 2.93472 0.395477C3.04477 0.329033 3.18784 0.2493 3.24653 0.2194C3.30522 0.192822 3.46297 0.136345 3.59503 0.093156Z" fill="#262626"/>
</svg>
