<svg width="20" height="18" viewBox="0 0 20 18" fill="none" xmlns="http://www.w3.org/2000/svg">
<path d="M19.9137 9.34471L19.9655 13.4139L20 17.5H11.5444V11.2784L13.8913 6.01533C15.1682 3.13996 16.3244 0.718594 16.428 0.651335C16.5487 0.584074 17.17 0.516815 17.843 0.516815C18.516 0.516815 19.2235 0.550446 19.4478 0.600891C19.6549 0.651337 19.8274 0.785858 19.8274 0.886749C19.8274 1.00445 19.3097 2.80366 18.6885 4.88873C18.0673 6.97379 17.5324 8.80663 17.4806 8.95796C17.4288 9.227 17.5669 9.26063 19.9137 9.34471Z" fill="#D4D4D4"/>
<path d="M8.36928 9.32789L8.40379 13.4139L8.45557 17.4832H0V11.2616L2.00172 6.77201C3.08887 4.3002 4.17601 1.87883 4.83175 0.5L6.33304 0.516815C7.16134 0.516815 7.95513 0.584076 8.11044 0.66815C8.33477 0.802671 8.19672 1.3912 7.1786 4.73739L7.16232 4.79124C6.51347 6.93762 5.95312 8.79121 5.91889 8.95796C5.86712 9.21019 6.02243 9.26063 8.36928 9.32789Z" fill="#D4D4D4"/>
</svg>
