<svg width="20" height="18" viewBox="0 0 20 18" fill="none" xmlns="http://www.w3.org/2000/svg">
<path d="M9.12207 1.05315C9.50107 0.358205 10.4989 0.358204 10.8779 1.05315L13.083 5.0964C13.2268 5.36012 13.4816 5.54522 13.7769 5.60052L18.3036 6.44822C19.0817 6.59392 19.39 7.54294 18.8462 8.11814L15.6822 11.4647C15.4759 11.683 15.3786 11.9825 15.4172 12.2804L16.0098 16.8476C16.1117 17.6325 15.3044 18.2191 14.5893 17.8796L10.4288 15.9047C10.1575 15.7758 9.84255 15.7758 9.57117 15.9047L5.41068 17.8796C4.69558 18.2191 3.8883 17.6325 3.99016 16.8476L4.58279 12.2804C4.62144 11.9825 4.52413 11.683 4.31776 11.4647L1.1538 8.11814C0.609989 7.54294 0.918342 6.59392 1.69639 6.44822L6.22315 5.60052C6.51841 5.54522 6.77318 5.36012 6.91701 5.0964L9.12207 1.05315Z" fill="#262626"/>
</svg>
