<svg width="19" height="17" viewBox="0 0 19 17" fill="none" xmlns="http://www.w3.org/2000/svg">
<path fill-rule="evenodd" clip-rule="evenodd" d="M9.47974 0.00087391C15.909 -0.00311743 16.8043 0.00486525 17.0352 0.060744C17.181 0.0926748 17.4079 0.172502 17.5416 0.240354C17.6753 0.304216 17.89 0.43593 18.0196 0.535714C18.1452 0.635497 18.3316 0.819099 18.4328 0.942831C18.5341 1.07055 18.6719 1.28209 18.7367 1.41381C18.8015 1.54552 18.8906 1.76904 18.9271 1.91273C18.9959 2.15221 19 2.49945 19 6.80212C19 11.1886 18.9959 11.4441 18.923 11.6915C18.8825 11.8352 18.7934 12.0587 18.7286 12.1904C18.6597 12.3221 18.5341 12.5177 18.445 12.6295C18.3599 12.7372 18.1817 12.9169 18.0561 13.0206C17.9305 13.1244 17.6996 13.2721 17.5416 13.3479C17.3836 13.4198 17.1162 13.5116 16.942 13.5435C16.6706 13.5994 16.1277 13.6074 9.05437 13.6074L7.39339 15.2159C6.44542 16.1299 5.65544 16.8603 5.55821 16.9122C5.44478 16.9721 5.32324 17 5.1855 17C5.07207 17 4.91002 16.9641 4.8209 16.9242C4.73177 16.8843 4.59808 16.7885 4.52516 16.7086C4.45629 16.6248 4.37932 16.4931 4.35501 16.4133C4.3307 16.3255 4.3145 15.6868 4.3145 13.6074H3.34222C2.62111 13.6074 2.28891 13.5914 2.05394 13.5435C1.8838 13.5116 1.61237 13.4198 1.45842 13.3439C1.30043 13.2721 1.08166 13.1324 0.964179 13.0406C0.846695 12.9448 0.676546 12.7772 0.583369 12.6694C0.490192 12.5576 0.352452 12.3501 0.279531 12.1984C0.202559 12.0507 0.109382 11.8192 0.0688699 11.6795C0.00405117 11.452 0 11.0888 0 2.09234L0.109382 1.77303C0.170149 1.59741 0.307889 1.31802 0.417271 1.15437C0.526652 0.990727 0.72516 0.759229 0.854797 0.64348C0.988486 0.527731 1.23156 0.364086 1.39765 0.276276C1.56375 0.192458 1.81087 0.0926748 1.94456 0.060744C2.15522 0.0128479 3.20448 0.00486525 9.47974 0.00087391ZM4.3145 5.94398H14.6855V4.22771H4.3145V5.94398ZM4.3145 9.33662H14.6855V7.66026H4.3145V9.33662Z" fill="#AFE982"/>
</svg>
