<svg width="27" height="27" viewBox="0 0 27 27" fill="none" xmlns="http://www.w3.org/2000/svg">
<path d="M7.06731 1.34314C7.13259 1.23693 7.26313 1.12255 7.36104 1.0817C7.45895 1.04085 8.72361 1.00817 10.1678 1C12.3544 1 12.844 1.01634 13.0479 1.12255C13.1785 1.18791 13.3417 1.35131 13.4151 1.4902C13.5212 1.70261 13.5375 3.21405 13.5375 25.5098L13.3335 25.7141C13.2193 25.8203 13.0071 25.9346 12.8603 25.9592C12.7134 25.9837 11.408 25.9918 7.32024 25.9592L6.96125 25.5507L6.89597 16.768C6.86333 11.9314 6.85518 6.53105 6.88781 4.75817C6.93677 2.10294 6.96125 1.49837 7.06731 1.34314Z" fill="white"/>
<path d="M16.3687 4.25163C17.103 3.9902 18.0005 3.68791 18.3677 3.57353C18.743 3.46732 19.1265 3.36928 19.2244 3.36928C19.3304 3.36928 19.5099 3.4183 19.6323 3.48366C19.7547 3.54085 19.9179 3.6634 19.9913 3.7451C20.0648 3.8268 20.4972 4.94608 20.9459 6.22876C21.4029 7.50327 22.7083 11.2206 23.8506 14.4804C24.9929 17.732 26.1678 21.0735 26.4615 21.8905C26.7552 22.7075 27 23.4918 27 23.6307C27 23.7941 26.9103 23.9684 26.7308 24.1536C26.5431 24.3578 26.1841 24.5621 25.5314 24.8399C25.0092 25.0605 24.1117 25.3954 23.5324 25.5915C22.9449 25.7794 22.3004 25.9428 22.0882 25.951C21.819 25.951 21.6639 25.9101 21.5334 25.7958C21.4273 25.7059 21.2805 25.5016 21.207 25.3464C21.1254 25.183 20.6522 23.884 20.1627 22.4461C19.7001 21.0873 18.7201 18.2328 17.9321 15.9372L17.7965 15.5425C16.9888 13.1814 16.026 10.4036 15.6588 9.37418C15.2835 8.3366 14.8429 7.13562 14.6716 6.69444C14.4921 6.25327 14.3534 5.79575 14.3534 5.6732C14.3534 5.55065 14.4268 5.33007 14.5166 5.18301C14.6063 5.03595 14.7613 4.87255 14.8593 4.82353C14.9653 4.77451 15.6425 4.51307 16.3687 4.25163Z" fill="white"/>
<path d="M0.123916 4.09641L0.385006 3.85131L0.646098 3.61438H5.05201L5.62315 4.18627V14.7663C5.62315 21.6291 5.59051 25.4118 5.54156 25.5507C5.49261 25.6569 5.32942 25.8039 5.1744 25.8775C4.94595 25.9755 4.47272 26 2.76747 26C1.04589 26 0.597144 25.9755 0.401325 25.8775C0.262621 25.8039 0.115757 25.6814 0.0749613 25.5915C0.0178476 25.4853 -0.00662925 22.3317 0.00152985 16.5801C0.00152985 11.719 0.0341663 6.91503 0.123916 4.09641Z" fill="white"/>
</svg>
