<svg width="17" height="16" viewBox="0 0 17 16" fill="none" xmlns="http://www.w3.org/2000/svg">
<path d="M6.74415 2.21957C7.51893 0.79891 7.90632 0.08858 8.5 0.08858C9.09368 0.08858 9.48107 0.79891 10.2559 2.21957L11.0049 3.59311C11.2284 4.0028 11.3401 4.20765 11.5224 4.34008C11.7046 4.4725 11.934 4.51545 12.3927 4.60135L13.9305 4.88932C15.521 5.18718 16.3163 5.33611 16.4997 5.90073C16.6832 6.46535 16.1273 7.05328 15.0156 8.22916L13.9408 9.36602C13.6202 9.70513 13.4599 9.87468 13.3903 10.0889C13.3207 10.3032 13.3507 10.5346 13.4107 10.9974L13.6121 12.5489C13.8203 14.1537 13.9244 14.956 13.4441 15.305C12.9638 15.6539 12.2329 15.307 10.771 14.613L9.35766 13.9421C8.93609 13.742 8.7253 13.6419 8.5 13.6419C8.2747 13.6419 8.06391 13.742 7.64234 13.9421L6.22897 14.613C4.76712 15.307 4.03619 15.6539 3.55589 15.305C3.0756 14.956 3.17971 14.1537 3.38794 12.5489L3.58926 10.9974C3.64931 10.5346 3.67934 10.3032 3.60972 10.0889C3.5401 9.87468 3.3798 9.70513 3.0592 9.36602L1.98437 8.22916C0.872661 7.05328 0.316808 6.46535 0.500264 5.90073C0.683721 5.33611 1.479 5.18718 3.06955 4.88932L4.60734 4.60135C5.06603 4.51545 5.29537 4.4725 5.47764 4.34008C5.65991 4.20765 5.77163 4.0028 5.99506 3.59311L6.74415 2.21957Z" fill="#FDCB4D"/>
</svg>
