<svg width="17" height="16" viewBox="0 0 17 16" fill="none" xmlns="http://www.w3.org/2000/svg">
<path d="M6.74415 2.71957C7.51893 1.29891 7.90632 0.58858 8.5 0.58858C9.09368 0.58858 9.48107 1.29891 10.2559 2.71957L11.0049 4.09311C11.2284 4.5028 11.3401 4.70765 11.5224 4.84008C11.7046 4.9725 11.934 5.01545 12.3927 5.10135L13.9305 5.38932C15.521 5.68718 16.3163 5.83611 16.4997 6.40073C16.6832 6.96535 16.1273 7.55328 15.0156 8.72916L13.9408 9.86602C13.6202 10.2051 13.4599 10.3747 13.3903 10.5889C13.3207 10.8032 13.3507 11.0346 13.4107 11.4974L13.6121 13.0489C13.8203 14.6537 13.9244 15.456 13.4441 15.805C12.9638 16.1539 12.2329 15.807 10.771 15.113L9.35766 14.4421C8.93609 14.242 8.7253 14.1419 8.5 14.1419C8.2747 14.1419 8.06391 14.242 7.64234 14.4421L6.22897 15.113C4.76712 15.807 4.03619 16.1539 3.55589 15.805C3.0756 15.456 3.17971 14.6537 3.38794 13.0489L3.58926 11.4974C3.64931 11.0346 3.67934 10.8032 3.60972 10.5889C3.5401 10.3747 3.3798 10.2051 3.0592 9.86602L1.98437 8.72916C0.872661 7.55328 0.316808 6.96535 0.500264 6.40073C0.683721 5.83611 1.479 5.68718 3.06955 5.38932L4.60734 5.10135C5.06603 5.01545 5.29537 4.9725 5.47764 4.84008C5.65991 4.70765 5.77163 4.5028 5.99506 4.09311L6.74415 2.71957Z" fill="white"/>
<path d="M8.5 1.08984C8.55527 1.08984 8.67099 1.1058 8.91016 1.42285C9.03029 1.58212 9.15761 1.78532 9.30469 2.03906L9.81543 2.95996L10.5645 4.33301C10.7401 4.65511 10.8905 4.94831 11.123 5.16016L11.2275 5.24609C11.4487 5.40672 11.7098 5.47853 12 5.53711L12.3008 5.59375L13.8379 5.88184C14.6497 6.03385 15.202 6.13856 15.5791 6.26855C15.8605 6.36561 15.9598 6.44916 15.999 6.50684L16.0234 6.55566C16.0405 6.6083 16.0604 6.72368 15.833 7.04883C15.7187 7.21225 15.5649 7.39606 15.3691 7.61426L14.6514 8.38477L13.5762 9.52148C13.2883 9.82594 13.0258 10.0869 12.9131 10.4336C12.8286 10.6936 12.841 10.9645 12.875 11.2588L12.9141 11.5615L13.1152 13.1133C13.2215 13.9324 13.2923 14.4899 13.2852 14.8887C13.2798 15.186 13.2312 15.3061 13.1885 15.3613L13.1494 15.3994C13.1047 15.4319 13.0017 15.4869 12.6221 15.3711C12.4312 15.3129 12.2086 15.2233 11.9404 15.1045L10.9863 14.6602L9.57227 13.9893C9.19373 13.8096 8.8646 13.6406 8.5 13.6406C8.22634 13.6406 7.97273 13.736 7.70312 13.8594L7.42773 13.9893L6.01367 14.6602C5.26752 15.0144 4.75937 15.2547 4.37793 15.3711C4.09313 15.458 3.96401 15.4484 3.89844 15.4248L3.85059 15.3994C3.80587 15.3669 3.72197 15.2858 3.71484 14.8887C3.71128 14.6894 3.7277 14.4505 3.75781 14.1592L3.88477 13.1133L4.08594 11.5615C4.13986 11.146 4.19958 10.7804 4.08691 10.4336C4.00239 10.1737 3.83322 9.96216 3.63281 9.74414L3.42383 9.52148L2.34863 8.38477C1.78115 7.78453 1.39562 7.37565 1.16699 7.04883C0.996511 6.8051 0.965666 6.67913 0.967773 6.60938L0.976562 6.55566C0.993642 6.5031 1.0454 6.39805 1.4209 6.26855C1.60932 6.2036 1.84155 6.14538 2.12793 6.08398L3.16211 5.88184L4.69922 5.59375C5.05958 5.52627 5.38499 5.47476 5.6582 5.31934L5.77246 5.24609C5.99375 5.08532 6.14258 4.85875 6.28809 4.60059L6.43555 4.33301L7.18457 2.95996C7.58011 2.23469 7.84965 1.74128 8.08984 1.42285C8.32901 1.1058 8.44473 1.08984 8.5 1.08984Z" stroke="white" stroke-opacity="0.4" stroke-width="1.00261"/>
</svg>
